# xmcd
#
# Track frame offsets:
#	150
#	20191
#	37876
#	55738
#	75596
#	97435
#	120611
#	141320
#	163413
#	182293
#
# Disc length: 2626 seconds
#
# Revision: 0
# Processed by: cddbd v1.4PL0 Copyright (c) Steve Scherf et al.
# Submitted via: dBpowerAMP V4.0
#
DISCID=870a400a
DTITLE=張衛健 - I Don't Wanna Say Good-Bye
DYEAR=1900
DGENRE=
TTITLE0=我愛的他有你的影子
TTITLE1=風車寓言
TTITLE2=CD
TTITLE3=乘著愛自由的飛
TTITLE4=關心
TTITLE5=謝謝再聯絡
TTITLE6=在乎
TTITLE7=I Don't Wanna Say Good-Bye
TTITLE8=似曾相識
TTITLE9=結婚幻想曲
EXTD=I Don't Wanna Say Good-Bye
EXTT0=
EXTT1=
EXTT2=
EXTT3=
EXTT4=
EXTT5=
EXTT6=
EXTT7=
EXTT8=
EXTT9=
PLAYORDER=
